<!DOCTYPE svg PUBLIC "-//W3C//DTD SVG 1.1//EN" "https://www.w3.org/Graphics/SVG/1.1/DTD/svg11.dtd"><svg xmlns="http://www.w3.org/2000/svg" aria-label="Graph view" width="314" height="423"><g transform="translate(12,19.362802505493164)"><g class="nodes"><g class="node-container" transform="translate(144.64332580566406,18.727272987365723)"><g class="node anchor"><circle class="shape" x="-16.090076446533203" y="-8.727272987365723" r="26.090076446533203"/><text class="label"><tspan xml:space="preserve" text-anchor="middle" alignment-baseline="central">Start</tspan></text></g></g><g class="node-container" transform="translate(144.64332580566406,368.54546070098877)"><g class="node anchor"><circle class="shape" x="-12.17613697052002" y="-8.727272987365723" r="22.17613697052002"/><text class="label"><tspan xml:space="preserve" text-anchor="middle" alignment-baseline="central">End</tspan></text></g></g><g class="node-container" transform="translate(144.64332580566406,162.40909385681152)"><g class="node state Parallel Container SucceededState" aria-label="State Parallel" data-virtual-tab-id="11" tabindex="0" transform="translate(-144.64332580566406,-59.95454788208008)"><rect class="shape" rx="5" ry="5" x="0" y="0" width="289.2866516113281" height="179.90909576416016" transform="translate(0,-20)"/><g class="branches" transform="translate(20,40)"><g class="branch" transform="translate(0,0)"><g class="nodes"><g class="node-container" transform="translate(56.102272033691406,18.727272987365723)"><g class="node state Wait SucceededState" aria-label="State Long Action" data-virtual-tab-id="12" tabindex="-1" transform="translate(-8)"><rect class="shape step-status" rx="5" ry="5" x="-48.102272033691406" y="-18.727272987365723" width="112.20454406738281" height="37.454545974731445"/><text class="label" xml:space="preserve" text-anchor="middle" alignment-baseline="central">Long Action</text><svg class="icon" width="16" height="16" x="43.102272033691406" y="-8"><circle stroke="black" stroke-width="1" fill="none" cx="8" cy="8" r="7"/><path stroke="black" stroke-width="1" fill="none" d="m5 8 2 2 3.521-3.521"/></svg></g></g></g><g class="edges"/></g><g class="branch" transform="translate(132.2045440673828,0)"><g class="nodes"><g class="node-container" transform="translate(58.541053771972656,18.727272987365723)"><g class="node state Task CaughtErrorState" aria-label="State This Will Fail" data-virtual-tab-id="13" tabindex="-1" transform="translate(-8)"><rect class="shape step-status" rx="5" ry="5" x="-50.037776947021484" y="-18.727272987365723" width="116.07555389404297" height="37.454545974731445"/><text class="label" xml:space="preserve" text-anchor="middle" alignment-baseline="central">This Will Fail</text><svg class="icon" width="16" height="16" x="45.037776947021484" y="-8"><path stroke="black" stroke-width="1" fill="none" d="m8 1 7 14H1L8 1z"/><path stroke="black" stroke-width="1" fill="none" d="M7.99 12H8v.01h-.01zM8 6v4"/></svg></g></g><g class="node-container" transform="translate(58.541053771972656,81.18181896209717)"><g class="node state Pass SucceededState" aria-label="State Handle Error" data-virtual-tab-id="14" tabindex="-1" transform="translate(-8)"><rect class="shape step-status" rx="5" ry="5" x="-50.541053771972656" y="-18.727272987365723" width="117.08210754394531" height="37.454545974731445"/><text class="label" xml:space="preserve" text-anchor="middle" alignment-baseline="central">Handle Error</text><svg class="icon" width="16" height="16" x="45.541053771972656" y="-8"><circle stroke="black" stroke-width="1" fill="none" cx="8" cy="8" r="7"/><path stroke="black" stroke-width="1" fill="none" d="m5 8 2 2 3.521-3.521"/></svg></g></g></g><g class="edges"><g class="edge"><path class="path" marker-end="url(#arrowhead13)" d="M58.541,37.455L58.541,39.538C58.541,41.621,58.541,45.788,58.541,49.955C58.541,54.121,58.541,58.288,58.541,60.371L58.541,62.455" style="fill: none;"/><defs><marker id="arrowhead13" viewBox="0 0 10 10" refX="9" refY="5" markerUnits="strokeWidth" markerWidth="8" markerHeight="6" orient="auto"><path d="M 0 0 L 10 5 L 0 10 z"/></marker></defs></g></g></g></g><g class="title node state SucceededState" transform="translate(124.64332580566406,-40)"><rect class="shape step-status" rx="5" ry="5" x="0" y="0" width="92.56818389892578" height="40" transform="translate(-26.28409194946289)"/><text class="label" xml:space="preserve" text-anchor="middle" alignment-baseline="central" font-weight="600" x="40" y="10" transform="translate(-28)">Parallel</text><text class="desciption" xml:space="preserve" text-anchor="middle" alignment-baseline="central" x="40" y="30" transform="translate(-20)">2 Branches</text><svg class="icon" width="16" height="16" xml:space="preserve" text-anchor="middle" alignment-baseline="central" x="45.28409194946289" y="3"><circle stroke="black" stroke-width="1" fill="none" cx="8" cy="8" r="7"/><path stroke="black" stroke-width="1" fill="none" d="m5 8 2 2 3.521-3.521"/></svg></g><path class="path" marker-end="url(#arrowhead14)" d="M144.643,0L144.643,3.333C144.643,6.667,144.643,13.333,133.22,16.667C121.796,20,98.949,20,87.526,23.333C76.102,26.667,76.102,33.333,76.102,36.667L76.102,40" style="fill: none;"/><defs><marker id="arrowhead14" viewBox="0 0 10 10" refX="9" refY="5" markerUnits="strokeWidth" markerWidth="8" markerHeight="6" orient="auto"><path d="M 0 0 L 10 5 L 0 10 z"/></marker></defs><path class="path" marker-end="url(#arrowhead15)" d="M144.643,0L144.643,3.333C144.643,6.667,144.643,13.333,155.66,16.667C166.677,20,188.712,20,199.729,23.333C210.746,26.667,210.746,33.333,210.746,36.667L210.746,40" style="fill: none;"/><defs><marker id="arrowhead15" viewBox="0 0 10 10" refX="9" refY="5" markerUnits="strokeWidth" markerWidth="8" markerHeight="6" orient="auto"><path d="M 0 0 L 10 5 L 0 10 z"/></marker></defs></g></g><g class="node-container" transform="translate(144.64332580566406,306.0909147262573)"><g class="node state Pass SucceededState" aria-label="State Final State" data-virtual-tab-id="15" tabindex="-1" transform="translate(-8)"><rect class="shape step-status" rx="5" ry="5" x="-43.835227966308594" y="-18.727272987365723" width="103.67045593261719" height="37.454545974731445"/><text class="label" xml:space="preserve" text-anchor="middle" alignment-baseline="central">Final State</text><svg class="icon" width="16" height="16" x="38.835227966308594" y="-8"><circle stroke="black" stroke-width="1" fill="none" cx="8" cy="8" r="7"/><path stroke="black" stroke-width="1" fill="none" d="m5 8 2 2 3.521-3.521"/></svg></g></g></g><g class="edges"><g class="edge"><path class="path" marker-end="url(#arrowhead16)" d="M144.643,262.364L144.643,264.447C144.643,266.53,144.643,270.697,144.643,274.864C144.643,279.03,144.643,283.197,144.643,285.28L144.643,287.364" style="fill: none;"/><defs><marker id="arrowhead16" viewBox="0 0 10 10" refX="9" refY="5" markerUnits="strokeWidth" markerWidth="8" markerHeight="6" orient="auto"><path d="M 0 0 L 10 5 L 0 10 z"/></marker></defs></g><g class="edge"><path class="path" marker-end="url(#arrowhead17)" d="M144.643,44.817L144.643,45.674C144.643,46.53,144.643,48.242,144.643,51.182C144.643,54.121,144.643,58.288,144.643,60.371L144.643,62.455" style="fill: none;"/></g><g class="edge"><path class="path" marker-end="url(#arrowhead18)" d="M144.643,324.818L144.643,326.902C144.643,328.985,144.643,333.152,144.643,336.743C144.643,340.335,144.643,343.352,144.643,344.861L144.643,346.369" style="fill: none;"/><defs><marker id="arrowhead18" viewBox="0 0 10 10" refX="9" refY="5" markerUnits="strokeWidth" markerWidth="8" markerHeight="6" orient="auto"><path d="M 0 0 L 10 5 L 0 10 z"/></marker></defs></g></g></g><style xmlns="http://www.w3.org/1999/xhtml">
  .link &gt; rect {
    fill: #0073BB;
  }

  .link .label {
    fill: #FFFFFF;
  }

  .node &gt; .shape {
    stroke: #555555;
    stroke-width: 0.6px;
    fill: #FFFFFF;
  }

  path {
    stroke: #555;
    background-color: #555;
    stroke-width: 1px;
  }

  .node.state.NotYetStarted &gt; .shape,
  .node.state.Container &gt; .shape {
    stroke-dasharray: 5 2;
  }

  .node.state.FailedState &gt; .shape,
  rect.legend.FailedState {
    fill: #DE322F;
  }

  .node.state.CaughtErrorState &gt; .shape,
  rect.legend.CaughtErrorState {
    fill: #FFA500;
  }

  .node.state.SucceededState &gt; .shape,
  rect.legend.SucceededState {
    fill: #2BD62E;
  }

  .node.state.InProgressState &gt; .shape,
  rect.legend.InProgressState {
    fill: #53c9ed;
  }

  .node.state.CancelledState &gt; .shape,
  rect.legend.CancelledState {
    fill: #dddddd;
  }

  .node.anchor &gt; .shape {
    fill: #FFDA75;
  }

  .node.state.hovered:not(.selected):not(.NotYetStarted) &gt; .shape,
  .node.selected &gt; .shape {
    stroke: #555555;
    stroke-width: 2px;
  }

  .node.state.Container.Failed &gt; .shape {
    fill: #EE9592;
  }

  .node.state.Container.CaughtError &gt; .shape {
    fill: #FFD27F;
  }

  .node.state.Container.Succeeded &gt; .shape {
    fill: #91EA9A;
  }

  .node.state.Container.InProgress &gt; .shape {
    fill :#A9E4F7;
  }

  .node.state.Container.Cancelled &gt; .shape {
    fill: #EEEEEE;
  }

  marker {
    fill: #555555;
  }

  .node.anchor,
  .node.state.NotYetStarted {
    cursor: default;
  }

  .node.state {
    cursor: default;
  }

  tspan .label {
    font-weight: normal;
    font-size: 12px;
    text-shadow: none;
  }
</style></svg>